<svg width="48" height="48" viewBox="0 0 24 24" fill="none" stroke="currentColor" stroke-width="2">
  <rect x="3" y="2" width="18" height="20" rx="2"/>
  <rect x="7" y="6" width="10" height="3" rx="1"/>
  <path d="M8 12h.01M12 12h.01M16 12h.01M8 16h.01M12 16h.01M16 16h.01"/>
</svg>
<svg width="48" height="48" viewBox="0 0 24 24" fill="none" stroke="currentColor" stroke-width="2">
  <rect x="3" y="2" width="18" height="20" rx="2"/>
  <rect x="7" y="6" width="10" height="2" rx="1"/>
  <rect x="7" y="11" width="3" height="3" rx="1"/>
  <rect x="11" y="11" width="3" height="3" rx="1"/>
  <rect x="15" y="11" width="3" height="3" rx="1"/>
  <rect x="7" y="15" width="3" height="3" rx="1"/>
  <rect x="11" y="15" width="3" height="3" rx="1"/>
  <rect x="15" y="15" width="3" height="3" rx="1"/>
</svg>
